<svg width="100" height="27" viewBox="0 0 100 27" fill="none" xmlns="http://www.w3.org/2000/svg">
<path fill-rule="evenodd" clip-rule="evenodd" d="M68.0421 18.018C68.0421 18.834 68.1631 19.428 68.4061 19.7996C68.6501 20.1724 69.0851 20.3582 69.7101 20.3582V20.9168C69.1711 20.8635 68.6321 20.8368 68.0941 20.8368C66.5461 20.8368 65.2781 20.9606 64.2881 21.2095V18.9226C63.6961 20.5173 62.5681 21.3153 60.8991 21.3153C59.2651 21.3153 57.9621 20.7128 56.9891 19.5069C56.0331 18.2838 55.5641 16.4488 55.5811 14.0028C55.5811 12.4422 55.8251 11.1305 56.3111 10.0667C56.8151 8.98569 57.5011 8.17919 58.3701 7.64729C59.2571 7.09719 60.2641 6.82269 61.3941 6.82269C62.6631 6.82269 63.6271 7.15919 64.2881 7.83319V3.31279C64.2881 2.49669 64.1571 1.90279 63.8961 1.53109C63.6531 1.15829 63.2271 0.972492 62.6191 0.972492V0.413794C63.1751 0.467194 63.7141 0.493893 64.2361 0.493893C65.7481 0.493893 67.0171 0.368994 68.0421 0.121094V18.018ZM61.9681 20.1724C62.5411 20.1724 63.0451 19.9598 63.4801 19.5336C63.9311 19.1085 64.2011 18.5329 64.2881 17.8054V8.49759C63.8541 7.89509 63.2191 7.59389 62.3841 7.59389C61.4641 7.59389 60.7511 8.13439 60.2471 9.21639C59.7431 10.2974 59.5001 11.9103 59.5181 14.0562C59.5001 16.2192 59.7001 17.7787 60.1161 18.7358C60.5511 19.6938 61.1681 20.1724 61.9681 20.1724ZM10.2911 7.18589C11.1951 7.18589 11.9951 7.44009 12.6901 7.94979C13.4021 8.45939 13.9581 9.22339 14.3581 10.2415C14.7581 11.2608 14.9581 12.507 14.9581 13.9801C14.9581 16.5809 14.4101 18.5823 13.3151 19.9829C12.2381 21.3662 10.7701 22.0566 8.9101 22.0566C8.3891 22.0566 7.8931 21.9843 7.4241 21.8384C6.9721 21.6927 6.5811 21.4746 6.2511 21.1842V23.9121C6.2511 24.7134 6.4421 25.268 6.8241 25.5771C7.2071 25.886 7.79811 26.0405 8.59711 26.0405V26.6138L7.8931 26.5865C5.9651 26.5317 4.73909 26.5041 4.21809 26.5041C3.69709 26.5041 2.60111 26.5414 0.933105 26.6138V26.0405C1.50611 26.0405 1.9061 25.9047 2.1321 25.6318C2.3751 25.3764 2.4971 24.8953 2.4971 24.185V10.5419C2.4971 9.70559 2.36709 9.09619 2.10609 8.71369C1.86309 8.33229 1.4371 8.14049 0.829102 8.14049V7.56729C1.3851 7.62209 1.9241 7.64949 2.4451 7.64949C3.9571 7.64949 5.2251 7.52229 6.2511 7.26809V9.77789C6.6161 8.94169 7.14609 8.30489 7.84109 7.86759C8.5361 7.41269 9.35311 7.18589 10.2911 7.18589ZM7.8931 21.3201C9.0051 21.3201 9.80511 20.7469 10.2911 19.6016C10.7781 18.4364 11.0211 16.7453 11.0211 14.5259C11.0211 12.3064 10.8221 10.7238 10.4221 9.77789C10.0401 8.83209 9.4841 8.35859 8.7531 8.35859C8.1621 8.35859 7.63311 8.56789 7.16411 8.98659C6.71111 9.40529 6.4081 9.98729 6.2511 10.7326V20.5836C6.6681 21.0746 7.2161 21.3201 7.8931 21.3201ZM23.7901 7.18589C26.0001 7.18589 27.7301 7.75649 28.9801 8.89679C30.2291 10.0205 30.8541 11.8096 30.8541 14.2641C30.8541 16.7176 30.2291 18.5067 28.9801 19.6304C27.7301 20.754 26.0001 21.3153 23.7901 21.3153C21.5981 21.3153 19.8681 20.754 18.5981 19.6304C17.3501 18.5067 16.7241 16.7176 16.7241 14.2641C16.7241 11.8096 17.3501 10.0205 18.5981 8.89679C19.8681 7.75649 21.5981 7.18589 23.7901 7.18589ZM23.7901 7.70449C22.9631 7.70449 22.2991 8.24909 21.8001 9.33739C21.3191 10.4089 21.0781 12.0512 21.0781 14.2641C21.0781 16.476 21.3191 18.1183 21.8001 19.1899C22.2991 20.2614 22.9631 20.7967 23.7901 20.7967C24.6351 20.7967 25.2991 20.2697 25.7791 19.2158C26.2591 18.1443 26.5001 16.4937 26.5001 14.2641C26.5001 12.0335 26.2501 10.3829 25.7511 9.31129C25.2701 8.23969 24.6151 7.70449 23.7901 7.70449ZM51.7851 7.29389C52.6941 7.29389 53.3701 7.26659 53.8141 7.21209V7.75559C53.4411 7.86469 53.1031 8.09059 52.8001 8.43549C52.4971 8.77929 52.2301 9.33159 52.0001 10.0923L48.4491 21.3153C48.2541 21.2967 47.9601 21.2881 47.5681 21.2881C47.1941 21.2881 46.9101 21.2967 46.7141 21.3153L43.0831 11.2339L40.1211 21.3153C39.9431 21.2967 39.6581 21.2881 39.2661 21.2881C38.8751 21.2881 38.5811 21.2967 38.3851 21.3153L34.1681 9.30429C33.9551 8.67129 33.7151 8.26309 33.4481 8.08189C33.1811 7.88329 32.9041 7.78289 32.6201 7.78289V7.21209C33.7771 7.32119 35.0401 7.37579 36.4101 7.37579C37.3001 7.37579 38.4571 7.32119 39.8811 7.21209V7.78289C39.2931 7.78289 38.8671 7.82869 38.5991 7.91929C38.3501 8.00989 38.2251 8.22709 38.2251 8.57089C38.2251 8.80659 38.2701 9.05109 38.3591 9.30429L40.7611 16.9944L43.6711 7.18589L44.6591 7.21209L45.6191 7.18589L49.0901 17.5652L50.7711 12.1038C51.0211 11.2525 51.1451 10.5638 51.1451 10.0388C51.1451 8.62539 50.4421 7.86469 49.0361 7.75559V7.21209C49.8731 7.26659 50.7891 7.29389 51.7851 7.29389ZM83.8291 18.1088C83.8291 18.9089 83.9601 19.4912 84.2181 19.8555C84.4961 20.221 84.9581 20.4032 85.6051 20.4032V20.9509C85.0311 20.8985 84.4591 20.8723 83.8851 20.8723C82.2761 20.8723 80.9271 20.9938 79.8351 21.2378V18.891C78.9851 20.508 77.4961 21.3153 75.3691 21.3153C73.9821 21.3153 72.9741 20.9771 72.3451 20.2985C72.0491 19.9686 71.8281 19.5424 71.6801 19.021C71.5501 18.4827 71.4861 17.779 71.4861 16.9099V10.3137C71.4861 9.51479 71.3471 8.93249 71.0691 8.56709C70.8111 8.20269 70.3571 8.01939 69.7101 8.01939V7.47169C70.2831 7.52409 70.8561 7.55029 71.4301 7.55029C73.0391 7.55029 74.3881 7.42879 75.4801 7.18589V17.979C75.4801 18.7089 75.5901 19.2566 75.8121 19.621C76.0531 19.9864 76.4981 20.1687 77.1441 20.1687C77.8841 20.1687 78.5131 19.8817 79.0301 19.3079C79.5671 18.7172 79.8351 17.9958 79.8351 17.1444V10.3137C79.8351 9.51479 79.6971 8.93249 79.4191 8.56709C79.1601 8.20269 78.7071 8.01939 78.0601 8.01939V7.47169C78.6511 7.52409 79.2251 7.55029 79.7801 7.55029C81.3891 7.55029 82.7381 7.42879 83.8291 7.18589V18.1088ZM99.0801 7.90409C98.6461 7.42529 98.0011 7.18589 97.1481 7.18589C96.2961 7.18589 95.5281 7.42529 94.8461 7.90409C94.1641 8.36579 93.6431 8.97719 93.2841 9.74029V7.26599C92.2031 7.51399 90.8201 7.63799 89.1341 7.63799C88.5661 7.63799 87.9781 7.61119 87.3711 7.55779V8.11679C88.0541 8.11679 88.5281 8.30379 88.7931 8.67579C89.0581 9.04879 89.1901 9.64299 89.1901 10.4585V18.84C89.1901 19.5678 89.0581 20.0733 88.7931 20.3577C88.5281 20.6228 88.0541 20.7563 87.3711 20.7563V21.3153C87.5991 21.3153 87.7881 21.3058 87.9401 21.2886C89.7581 21.2351 90.9241 21.2084 91.4351 21.2084C92.0801 21.2084 93.3681 21.2351 95.3011 21.2886C95.4721 21.3058 95.6891 21.3153 95.9551 21.3153V20.7563C95.0271 20.7563 94.3441 20.597 93.9081 20.2775C93.4911 19.958 93.2841 19.3903 93.2841 18.5738V11.523C93.2841 10.7781 93.5291 10.0502 94.0221 9.34049C94.5341 8.63189 95.1491 8.22369 95.8691 8.11679C95.9841 8.08149 96.1341 8.06329 96.3241 8.06329C96.4761 8.06329 96.5901 8.07299 96.6651 8.09009C95.8321 8.62229 95.4151 9.31489 95.4151 10.1657C95.4151 10.6808 95.6041 11.0976 95.9831 11.4161C96.3631 11.7186 96.8741 11.8693 97.5181 11.8693C98.1811 11.8693 98.7121 11.6652 99.1091 11.2569C99.5261 10.8315 99.7351 10.2896 99.7351 9.63339C99.7351 8.96009 99.5171 8.38289 99.0801 7.90409Z" fill="black"/>
</svg>
