<svg width="151" height="15" viewBox="0 0 151 15" fill="none" xmlns="http://www.w3.org/2000/svg">
<path fill-rule="evenodd" clip-rule="evenodd" d="M13.0521 7.52543C13.0521 7.91633 12.7311 8.23733 12.3401 8.23733H1.04308C0.651076 8.23733 0.330078 7.91633 0.330078 7.52543C0.330078 7.13383 0.651076 6.81283 1.04308 6.81283H12.3401C12.7311 6.81283 13.0521 7.13383 13.0521 7.52543ZM13.8621 10.3602C13.8621 10.7511 13.5411 11.0722 13.1501 11.0722H5.07808C4.68708 11.0722 4.36607 10.7511 4.36607 10.3602C4.36607 9.96863 4.68708 9.64763 5.07808 9.64763H13.1501C13.5411 9.64763 13.8621 9.96863 13.8621 10.3602ZM13.1501 5.40253H5.88808C5.49708 5.40253 5.17609 5.08153 5.17609 4.69053C5.17609 4.29893 5.49708 3.97793 5.88808 3.97793H13.1501C13.5411 3.97793 13.8621 4.29893 13.8621 4.69053C13.8621 5.08153 13.5411 5.40253 13.1501 5.40253ZM21.5141 7.52543C21.5141 9.48003 19.9371 11.0579 17.9811 11.0579C16.0271 11.0579 14.4491 9.46643 14.4491 7.52543C14.4491 5.58373 16.0271 3.99223 17.9811 3.99223C19.9371 3.99223 21.5141 5.58373 21.5141 7.52543ZM15.8731 7.52543C15.8731 8.69813 16.8231 9.64763 17.9951 9.64763C19.1681 9.64763 20.1181 8.69813 20.1181 7.52543C20.1181 6.35193 19.1681 5.40253 17.9951 5.40253C16.8231 5.40253 15.8731 6.35193 15.8731 7.52543ZM17.9951 1.15743C21.5011 1.15743 24.3491 4.02003 24.3491 7.52543C24.3491 11.0301 21.5011 13.8927 17.9951 13.8927H8.31808C7.92708 13.8927 7.60608 13.5717 7.60608 13.1808C7.60608 12.7899 7.92708 12.4689 8.31808 12.4689H17.9951C20.7181 12.4689 22.9391 10.2482 22.9391 7.51113C22.9391 4.77403 20.7181 2.55343 17.9951 2.55343H2.66208C2.27108 2.55343 1.95007 2.23243 1.95007 1.84153C1.95007 1.45053 2.27108 1.12953 2.66208 1.12953H17.9951V1.15743ZM42.5591 9.88513V5.17923C42.5591 2.35803 44.4581 0.375528 47.1961 0.375528C49.9331 0.375528 51.8321 2.35803 51.8321 5.17923V9.88513C51.8321 12.6921 49.9181 14.6468 47.1961 14.6468C44.4721 14.6468 42.5591 12.6779 42.5591 9.88513ZM49.1371 9.98293V5.08153C49.1371 3.53143 48.2151 2.95863 47.1961 2.95863C46.2321 2.95863 45.2821 3.47513 45.2821 5.05373V9.95513C45.2821 11.5052 46.1901 12.0495 47.1961 12.0495C48.1171 12.0495 49.1371 11.5608 49.1371 9.96863V9.98293ZM58.7301 2.95863C57.7941 2.95863 56.8171 3.47513 56.8171 5.05373V9.95513C56.8171 11.5886 57.7941 12.0773 58.7301 12.0773C59.9871 12.0773 60.6711 11.4631 60.6711 9.45213V9.27103H63.3801C63.3801 12.8035 61.8721 14.661 58.7441 14.661C56.0071 14.661 54.1081 12.6921 54.1081 9.87093V5.12293C54.1081 2.31653 56.0071 0.361328 58.7441 0.361328C61.8161 0.361328 63.3801 2.38653 63.3801 5.59803H60.6711V5.40253C60.6711 3.36373 59.6801 2.94503 58.7301 2.94503V2.95863ZM72.2751 14.4513L69.5381 8.69823H68.5191V14.4513H65.8101V0.612429H68.5191V6.30993H69.5381L72.2751 0.612429H75.3061L71.8571 7.48333L75.3061 14.4513H72.2751ZM80.3471 3.22393V6.36623H84.0901V8.72603H80.3471V11.8682H85.4021V14.4513H77.6521V0.612429H85.4021V3.22393H80.3471ZM92.6641 3.22393V14.4513H89.9551V3.22393H87.0781V0.612429H95.5401V3.22393H92.6641ZM114.1 14.4513V0.612429H116.809V14.4513H114.1ZM119.978 0.612429H124.517C127.254 0.612429 129.153 2.30233 129.153 5.68213V9.32663C129.153 12.6643 127.254 14.4513 124.517 14.4513H119.978V0.612429ZM122.688 11.8818H124.21C125.509 11.8818 126.486 11.3653 126.486 8.67033V5.97533C126.486 4.48083 126.095 3.21043 124.21 3.21043H122.688V11.8818ZM134.628 3.22393V6.36623H138.37V8.72603H134.628V11.8682H139.682V14.4513H131.933V0.612429H139.682V3.22393H134.628ZM141.54 4.42523C141.54 1.89713 143.341 0.361328 146.078 0.361328C148.815 0.361328 150.589 2.14893 150.589 4.99733H147.921C147.921 3.53143 147.195 2.83303 146.037 2.83303C144.878 2.83303 144.235 3.37733 144.235 4.42523C144.235 7.17593 150.756 5.54233 150.756 10.4858C150.756 13.1109 148.871 14.6888 146.078 14.6888C143.285 14.6888 141.359 12.8598 141.359 9.89943H144.067C144.067 11.5051 144.891 12.175 146.078 12.175C147.265 12.175 148.061 11.645 148.061 10.5136C148.061 7.88853 141.54 9.34023 141.54 4.42523ZM38.3001 10.2482L40.6321 14.4513H37.6721L35.8141 10.8767L35.4791 10.2761H34.0131V14.4513H31.3041V0.612429H35.6891C39.5851 0.612429 40.3111 3.85243 40.3111 5.61223C40.3111 7.56683 39.3331 8.97713 37.9371 9.63403C38.0631 9.85733 38.1881 10.0806 38.2861 10.2482H38.3001ZM34.0131 3.21043V7.72093H35.3681C36.4981 7.72093 37.6441 7.21803 37.6441 5.44463C37.6441 3.65693 36.5551 3.21043 35.3681 3.21043H34.0131ZM109.337 10.2482L111.67 14.4513H108.71L106.852 10.8767L106.517 10.2761H105.051V14.4513H102.355V0.612429H106.74C110.636 0.612429 111.362 3.85243 111.362 5.61223C111.362 7.56683 110.385 8.97713 108.988 9.63403C109.114 9.85733 109.24 10.0806 109.337 10.2482ZM105.051 3.21043V7.72093H106.405C107.536 7.72093 108.681 7.21803 108.681 5.44463C108.681 3.65693 107.592 3.21043 106.405 3.21043H105.051Z" fill="white"/>
</svg>
