<svg width="72" height="45" viewBox="0 0 72 45" fill="none" xmlns="http://www.w3.org/2000/svg">
<mask id="mask0_4003_522" style="mask-type:luminance" maskUnits="userSpaceOnUse" x="0" y="0" width="72" height="45">
<path d="M71.771 0.857422H0.665039V44.8014H71.771V0.857422Z" fill="white"/>
</mask>
<g mask="url(#mask0_4003_522)">
<path d="M45.836 5.55469H26.603V40.1047H45.836V5.55469Z" fill="#F16122"/>
<path d="M27.828 22.8364C27.828 15.8264 31.103 9.58241 36.218 5.55441C32.483 2.61341 27.758 0.857422 22.643 0.857422C10.504 0.857422 0.665039 10.6974 0.665039 22.8364C0.665039 34.9754 10.504 44.8154 22.643 44.8154C27.772 44.8154 32.483 43.0584 36.218 40.1184C31.103 36.0904 27.828 29.8464 27.828 22.8364Z" fill="#ED1C24"/>
<path d="M69.6638 36.4535V35.7435H69.9428V35.6035H69.2178V35.7435H69.4968V36.4535H69.6498H69.6638ZM71.0718 36.4535V35.6035H70.8488L70.5988 36.1885L70.3468 35.6035H70.1238V36.4535H70.2778V35.8125L70.5148 36.3695H70.6818L70.9188 35.8125V36.4535H71.0718Z" fill="#F99F1C"/>
<path d="M71.7708 22.8364C71.7708 34.9754 61.9308 44.8154 49.7918 44.8154C44.6628 44.8154 39.9518 43.0584 36.2168 40.1184C41.3318 36.0904 44.6068 29.8464 44.6068 22.8364C44.6068 15.8264 41.3318 9.58241 36.2168 5.55441C39.9518 2.61341 44.6768 0.857422 49.7918 0.857422C61.9308 0.857422 71.7708 10.6974 71.7708 22.8364Z" fill="#F99F1C"/>
</g>
</svg>
