<svg width="73" height="26" viewBox="0 0 73 26" fill="none" xmlns="http://www.w3.org/2000/svg">
<path d="M36.0558 1.41795L31.1768 24.8559H25.2508L30.1307 1.41795H36.0558ZM60.6288 16.562L63.7657 7.72795L65.5088 16.562H60.6288ZM67.2517 24.8559H72.6537L67.9488 1.41795H62.8947C61.8487 1.41795 60.8027 2.13895 60.4547 3.22095L51.7408 24.8559H57.8408L59.0608 21.4299H66.5537L67.2517 24.8559ZM51.9148 17.103C51.9148 10.973 43.7248 10.6129 43.7248 7.90794C43.8988 6.64594 44.9438 5.92494 46.1638 5.92494C48.0808 5.74494 50.1728 6.10494 51.9148 7.00694L52.9608 1.95895C51.2178 1.23795 49.3007 0.876953 47.5587 0.876953C41.8067 0.876953 37.6248 4.12194 37.6248 8.62994C37.6248 12.0549 40.5877 13.8579 42.6787 14.9399C44.9437 16.0209 45.8158 16.7429 45.6418 17.8239C45.6418 19.4469 43.8988 20.168 42.1558 20.168C40.0648 20.168 37.9728 19.627 36.0558 18.726L35.0107 23.774C37.1017 24.675 39.3677 25.0359 41.4587 25.0359C47.9067 25.216 51.9148 21.971 51.9148 17.103ZM27.6908 1.41795L18.2798 24.8559H12.0067L7.30075 6.10495C7.30075 5.20395 6.60374 4.48295 5.90674 4.12195C4.16374 3.22095 2.24676 2.49995 0.155762 2.13895L0.329742 1.41795H10.2638C11.6578 1.41795 12.7037 2.49995 12.8777 3.76195L15.3177 17.2829L21.5917 1.41795H27.6908Z" fill="black"/>
</svg>
