<svg width="73" height="25" viewBox="0 0 73 25" fill="none" xmlns="http://www.w3.org/2000/svg">
<path d="M36.185 1.14256L31.31 24.5616H25.389L30.265 1.14256H36.185ZM60.739 16.2746L63.874 7.44756L65.615 16.2746H60.739ZM67.356 24.5616H72.755L68.053 1.14256H63.003C61.958 1.14256 60.913 1.86256 60.565 2.94356L51.858 24.5616H57.953L59.172 21.1386H66.66L67.356 24.5616ZM52.032 16.8156C52.032 10.6906 43.848 10.3296 43.848 7.62756C44.022 6.36656 45.067 5.64555 46.286 5.64555C48.201 5.46555 50.291 5.82656 52.032 6.72656L53.077 1.68256C51.336 0.962556 49.42 0.601562 47.679 0.601562C41.932 0.601562 37.753 3.84456 37.753 8.34856C37.753 11.7716 40.713 13.5726 42.803 14.6536C45.067 15.7346 45.937 16.4556 45.763 17.5356C45.763 19.1576 44.022 19.8776 42.28 19.8776C40.191 19.8776 38.101 19.3376 36.185 18.4366L35.141 23.4806C37.23 24.3816 39.494 24.7416 41.584 24.7416C48.027 24.9226 52.032 21.6796 52.032 16.8156ZM27.827 1.14256L18.423 24.5616H12.154L7.452 5.82655C7.452 4.92555 6.75599 4.20456 6.05899 3.84456C4.31799 2.94356 2.40199 2.22356 0.312988 1.86256L0.487 1.14256H10.413C11.806 1.14256 12.851 2.22356 13.025 3.48456L15.463 16.9956L21.732 1.14256H27.827Z" fill="white"/>
</svg>
